<mxfile host="app.diagrams.net" agent="Mozilla/5.0 (Windows NT 10.0; Win64; x64) AppleWebKit/537.36 (KHTML, like Gecko) Chrome/134.0.0.0 Safari/537.36" version="26.1.3">
  <diagram name="Page-1" id="13e1069c-82ec-6db2-03f1-153e76fe0fe0">
    <mxGraphModel dx="4220" dy="1634" grid="1" gridSize="10" guides="1" tooltips="1" connect="1" arrows="1" fold="1" page="1" pageScale="1" pageWidth="1100" pageHeight="850" background="none" math="0" shadow="0">
      <root>
        <mxCell id="0" />
        <mxCell id="1" parent="0" />
        <mxCell id="idUogFl2Q6J1yMuT-vOO-66" value="User" style="shape=umlLifeline;perimeter=lifelinePerimeter;whiteSpace=wrap;container=1;dropTarget=0;collapsible=0;recursiveResize=0;outlineConnect=0;portConstraint=eastwest;newEdgeStyle={&quot;edgeStyle&quot;:&quot;elbowEdgeStyle&quot;,&quot;elbow&quot;:&quot;vertical&quot;,&quot;curved&quot;:0,&quot;rounded&quot;:0};participant=umlActor;verticalAlign=bottom;labelPosition=center;verticalLabelPosition=top;align=center;size=65;" vertex="1" parent="1">
          <mxGeometry x="20" y="20" width="35" height="2608" as="geometry" />
        </mxCell>
        <mxCell id="idUogFl2Q6J1yMuT-vOO-67" value="Dashboard Page" style="shape=umlLifeline;perimeter=lifelinePerimeter;whiteSpace=wrap;container=1;dropTarget=0;collapsible=0;recursiveResize=0;outlineConnect=0;portConstraint=eastwest;newEdgeStyle={&quot;edgeStyle&quot;:&quot;elbowEdgeStyle&quot;,&quot;elbow&quot;:&quot;vertical&quot;,&quot;curved&quot;:0,&quot;rounded&quot;:0};size=65;" vertex="1" parent="1">
          <mxGeometry x="233" y="20" width="150" height="2608" as="geometry" />
        </mxCell>
        <mxCell id="idUogFl2Q6J1yMuT-vOO-68" value="Mentor Browse Page" style="shape=umlLifeline;perimeter=lifelinePerimeter;whiteSpace=wrap;container=1;dropTarget=0;collapsible=0;recursiveResize=0;outlineConnect=0;portConstraint=eastwest;newEdgeStyle={&quot;edgeStyle&quot;:&quot;elbowEdgeStyle&quot;,&quot;elbow&quot;:&quot;vertical&quot;,&quot;curved&quot;:0,&quot;rounded&quot;:0};size=65;" vertex="1" parent="1">
          <mxGeometry x="433" y="20" width="166" height="2608" as="geometry" />
        </mxCell>
        <mxCell id="idUogFl2Q6J1yMuT-vOO-69" value="Booking Page" style="shape=umlLifeline;perimeter=lifelinePerimeter;whiteSpace=wrap;container=1;dropTarget=0;collapsible=0;recursiveResize=0;outlineConnect=0;portConstraint=eastwest;newEdgeStyle={&quot;edgeStyle&quot;:&quot;elbowEdgeStyle&quot;,&quot;elbow&quot;:&quot;vertical&quot;,&quot;curved&quot;:0,&quot;rounded&quot;:0};size=65;" vertex="1" parent="1">
          <mxGeometry x="649" y="20" width="150" height="2608" as="geometry" />
        </mxCell>
        <mxCell id="idUogFl2Q6J1yMuT-vOO-70" value="Calendar UI" style="shape=umlLifeline;perimeter=lifelinePerimeter;whiteSpace=wrap;container=1;dropTarget=0;collapsible=0;recursiveResize=0;outlineConnect=0;portConstraint=eastwest;newEdgeStyle={&quot;edgeStyle&quot;:&quot;elbowEdgeStyle&quot;,&quot;elbow&quot;:&quot;vertical&quot;,&quot;curved&quot;:0,&quot;rounded&quot;:0};size=65;" vertex="1" parent="1">
          <mxGeometry x="922" y="20" width="150" height="2608" as="geometry" />
        </mxCell>
        <mxCell id="idUogFl2Q6J1yMuT-vOO-71" value="Session Detail Page" style="shape=umlLifeline;perimeter=lifelinePerimeter;whiteSpace=wrap;container=1;dropTarget=0;collapsible=0;recursiveResize=0;outlineConnect=0;portConstraint=eastwest;newEdgeStyle={&quot;edgeStyle&quot;:&quot;elbowEdgeStyle&quot;,&quot;elbow&quot;:&quot;vertical&quot;,&quot;curved&quot;:0,&quot;rounded&quot;:0};size=65;" vertex="1" parent="1">
          <mxGeometry x="1185" y="20" width="157" height="2608" as="geometry" />
        </mxCell>
        <mxCell id="idUogFl2Q6J1yMuT-vOO-72" value="Room Form" style="shape=umlLifeline;perimeter=lifelinePerimeter;whiteSpace=wrap;container=1;dropTarget=0;collapsible=0;recursiveResize=0;outlineConnect=0;portConstraint=eastwest;newEdgeStyle={&quot;edgeStyle&quot;:&quot;elbowEdgeStyle&quot;,&quot;elbow&quot;:&quot;vertical&quot;,&quot;curved&quot;:0,&quot;rounded&quot;:0};size=65;" vertex="1" parent="1">
          <mxGeometry x="1450" y="20" width="150" height="2608" as="geometry" />
        </mxCell>
        <mxCell id="idUogFl2Q6J1yMuT-vOO-73" value="Notification UI" style="shape=umlLifeline;perimeter=lifelinePerimeter;whiteSpace=wrap;container=1;dropTarget=0;collapsible=0;recursiveResize=0;outlineConnect=0;portConstraint=eastwest;newEdgeStyle={&quot;edgeStyle&quot;:&quot;elbowEdgeStyle&quot;,&quot;elbow&quot;:&quot;vertical&quot;,&quot;curved&quot;:0,&quot;rounded&quot;:0};size=65;" vertex="1" parent="1">
          <mxGeometry x="1650" y="20" width="150" height="2608" as="geometry" />
        </mxCell>
        <mxCell id="idUogFl2Q6J1yMuT-vOO-74" value="Help Request UI" style="shape=umlLifeline;perimeter=lifelinePerimeter;whiteSpace=wrap;container=1;dropTarget=0;collapsible=0;recursiveResize=0;outlineConnect=0;portConstraint=eastwest;newEdgeStyle={&quot;edgeStyle&quot;:&quot;elbowEdgeStyle&quot;,&quot;elbow&quot;:&quot;vertical&quot;,&quot;curved&quot;:0,&quot;rounded&quot;:0};size=65;" vertex="1" parent="1">
          <mxGeometry x="1850" y="20" width="150" height="2608" as="geometry" />
        </mxCell>
        <mxCell id="idUogFl2Q6J1yMuT-vOO-75" value="Frontend Router" style="shape=umlLifeline;perimeter=lifelinePerimeter;whiteSpace=wrap;container=1;dropTarget=0;collapsible=0;recursiveResize=0;outlineConnect=0;portConstraint=eastwest;newEdgeStyle={&quot;edgeStyle&quot;:&quot;elbowEdgeStyle&quot;,&quot;elbow&quot;:&quot;vertical&quot;,&quot;curved&quot;:0,&quot;rounded&quot;:0};size=65;" vertex="1" parent="1">
          <mxGeometry x="2050" y="20" width="150" height="2608" as="geometry" />
        </mxCell>
        <mxCell id="idUogFl2Q6J1yMuT-vOO-76" value="User Controller" style="shape=umlLifeline;perimeter=lifelinePerimeter;whiteSpace=wrap;container=1;dropTarget=0;collapsible=0;recursiveResize=0;outlineConnect=0;portConstraint=eastwest;newEdgeStyle={&quot;edgeStyle&quot;:&quot;elbowEdgeStyle&quot;,&quot;elbow&quot;:&quot;vertical&quot;,&quot;curved&quot;:0,&quot;rounded&quot;:0};size=65;" vertex="1" parent="1">
          <mxGeometry x="2250" y="20" width="150" height="2608" as="geometry" />
        </mxCell>
        <mxCell id="idUogFl2Q6J1yMuT-vOO-77" value="Search Controller" style="shape=umlLifeline;perimeter=lifelinePerimeter;whiteSpace=wrap;container=1;dropTarget=0;collapsible=0;recursiveResize=0;outlineConnect=0;portConstraint=eastwest;newEdgeStyle={&quot;edgeStyle&quot;:&quot;elbowEdgeStyle&quot;,&quot;elbow&quot;:&quot;vertical&quot;,&quot;curved&quot;:0,&quot;rounded&quot;:0};size=65;" vertex="1" parent="1">
          <mxGeometry x="2450" y="20" width="150" height="2608" as="geometry" />
        </mxCell>
        <mxCell id="idUogFl2Q6J1yMuT-vOO-78" value="Booking Controller" style="shape=umlLifeline;perimeter=lifelinePerimeter;whiteSpace=wrap;container=1;dropTarget=0;collapsible=0;recursiveResize=0;outlineConnect=0;portConstraint=eastwest;newEdgeStyle={&quot;edgeStyle&quot;:&quot;elbowEdgeStyle&quot;,&quot;elbow&quot;:&quot;vertical&quot;,&quot;curved&quot;:0,&quot;rounded&quot;:0};size=65;" vertex="1" parent="1">
          <mxGeometry x="2650" y="20" width="153" height="2608" as="geometry" />
        </mxCell>
        <mxCell id="idUogFl2Q6J1yMuT-vOO-79" value="Calendar Controller" style="shape=umlLifeline;perimeter=lifelinePerimeter;whiteSpace=wrap;container=1;dropTarget=0;collapsible=0;recursiveResize=0;outlineConnect=0;portConstraint=eastwest;newEdgeStyle={&quot;edgeStyle&quot;:&quot;elbowEdgeStyle&quot;,&quot;elbow&quot;:&quot;vertical&quot;,&quot;curved&quot;:0,&quot;rounded&quot;:0};size=65;" vertex="1" parent="1">
          <mxGeometry x="2853" y="20" width="158" height="2608" as="geometry" />
        </mxCell>
        <mxCell id="idUogFl2Q6J1yMuT-vOO-80" value="Notification Controller" style="shape=umlLifeline;perimeter=lifelinePerimeter;whiteSpace=wrap;container=1;dropTarget=0;collapsible=0;recursiveResize=0;outlineConnect=0;portConstraint=eastwest;newEdgeStyle={&quot;edgeStyle&quot;:&quot;elbowEdgeStyle&quot;,&quot;elbow&quot;:&quot;vertical&quot;,&quot;curved&quot;:0,&quot;rounded&quot;:0};size=65;" vertex="1" parent="1">
          <mxGeometry x="3061" y="20" width="178" height="2608" as="geometry" />
        </mxCell>
        <mxCell id="idUogFl2Q6J1yMuT-vOO-81" value="Help Controller" style="shape=umlLifeline;perimeter=lifelinePerimeter;whiteSpace=wrap;container=1;dropTarget=0;collapsible=0;recursiveResize=0;outlineConnect=0;portConstraint=eastwest;newEdgeStyle={&quot;edgeStyle&quot;:&quot;elbowEdgeStyle&quot;,&quot;elbow&quot;:&quot;vertical&quot;,&quot;curved&quot;:0,&quot;rounded&quot;:0};size=65;" vertex="1" parent="1">
          <mxGeometry x="3289" y="20" width="150" height="2608" as="geometry" />
        </mxCell>
        <mxCell id="idUogFl2Q6J1yMuT-vOO-82" value="Database" style="shape=umlLifeline;perimeter=lifelinePerimeter;whiteSpace=wrap;container=1;dropTarget=0;collapsible=0;recursiveResize=0;outlineConnect=0;portConstraint=eastwest;newEdgeStyle={&quot;edgeStyle&quot;:&quot;elbowEdgeStyle&quot;,&quot;elbow&quot;:&quot;vertical&quot;,&quot;curved&quot;:0,&quot;rounded&quot;:0};size=65;" vertex="1" parent="1">
          <mxGeometry x="3541" y="20" width="150" height="2608" as="geometry" />
        </mxCell>
        <mxCell id="idUogFl2Q6J1yMuT-vOO-83" value="opt" style="shape=umlFrame;dashed=1;pointerEvents=0;dropTarget=0;strokeColor=#B3B3B3;height=20;width=30" vertex="1" parent="1">
          <mxGeometry x="84" y="2019" width="3543" height="514" as="geometry" />
        </mxCell>
        <mxCell id="idUogFl2Q6J1yMuT-vOO-84" value="[User needs help]" style="text;strokeColor=none;fillColor=none;align=center;verticalAlign=middle;whiteSpace=wrap;" vertex="1" parent="idUogFl2Q6J1yMuT-vOO-83">
          <mxGeometry x="30" width="3513" height="20" as="geometry" />
        </mxCell>
        <mxCell id="idUogFl2Q6J1yMuT-vOO-85" value="Click &quot;Find Mentors&quot;" style="verticalAlign=bottom;edgeStyle=elbowEdgeStyle;elbow=vertical;curved=0;rounded=0;endArrow=block;" edge="1" parent="1" source="idUogFl2Q6J1yMuT-vOO-66" target="idUogFl2Q6J1yMuT-vOO-67">
          <mxGeometry relative="1" as="geometry">
            <Array as="points">
              <mxPoint x="210" y="127" />
            </Array>
          </mxGeometry>
        </mxCell>
        <mxCell id="idUogFl2Q6J1yMuT-vOO-86" value="Navigate to mentor browse page" style="verticalAlign=bottom;edgeStyle=elbowEdgeStyle;elbow=vertical;curved=0;rounded=0;endArrow=block;" edge="1" parent="1" source="idUogFl2Q6J1yMuT-vOO-67" target="idUogFl2Q6J1yMuT-vOO-75">
          <mxGeometry relative="1" as="geometry">
            <Array as="points">
              <mxPoint x="1225" y="179" />
            </Array>
          </mxGeometry>
        </mxCell>
        <mxCell id="idUogFl2Q6J1yMuT-vOO-87" value="Load mentor browse page" style="verticalAlign=bottom;edgeStyle=elbowEdgeStyle;elbow=vertical;curved=0;rounded=0;endArrow=block;" edge="1" parent="1" source="idUogFl2Q6J1yMuT-vOO-75" target="idUogFl2Q6J1yMuT-vOO-68">
          <mxGeometry relative="1" as="geometry">
            <Array as="points">
              <mxPoint x="1332" y="231" />
            </Array>
          </mxGeometry>
        </mxCell>
        <mxCell id="idUogFl2Q6J1yMuT-vOO-88" value="Send search request" style="verticalAlign=bottom;edgeStyle=elbowEdgeStyle;elbow=vertical;curved=0;rounded=0;endArrow=block;" edge="1" parent="1" source="idUogFl2Q6J1yMuT-vOO-68" target="idUogFl2Q6J1yMuT-vOO-77">
          <mxGeometry relative="1" as="geometry">
            <Array as="points">
              <mxPoint x="1529" y="283" />
            </Array>
          </mxGeometry>
        </mxCell>
        <mxCell id="idUogFl2Q6J1yMuT-vOO-89" value="Query matching mentors" style="verticalAlign=bottom;edgeStyle=elbowEdgeStyle;elbow=vertical;curved=0;rounded=0;endArrow=block;" edge="1" parent="1" source="idUogFl2Q6J1yMuT-vOO-77" target="idUogFl2Q6J1yMuT-vOO-82">
          <mxGeometry relative="1" as="geometry">
            <Array as="points">
              <mxPoint x="3079" y="335" />
            </Array>
          </mxGeometry>
        </mxCell>
        <mxCell id="idUogFl2Q6J1yMuT-vOO-90" value="Return mentor data" style="verticalAlign=bottom;edgeStyle=elbowEdgeStyle;elbow=vertical;curved=0;rounded=0;dashed=1;dashPattern=2 3;endArrow=block;" edge="1" parent="1" source="idUogFl2Q6J1yMuT-vOO-82" target="idUogFl2Q6J1yMuT-vOO-77">
          <mxGeometry relative="1" as="geometry">
            <Array as="points">
              <mxPoint x="3082" y="387" />
            </Array>
          </mxGeometry>
        </mxCell>
        <mxCell id="idUogFl2Q6J1yMuT-vOO-91" value="Return search results" style="verticalAlign=bottom;edgeStyle=elbowEdgeStyle;elbow=vertical;curved=0;rounded=0;dashed=1;dashPattern=2 3;endArrow=block;" edge="1" parent="1" source="idUogFl2Q6J1yMuT-vOO-77" target="idUogFl2Q6J1yMuT-vOO-68">
          <mxGeometry relative="1" as="geometry">
            <Array as="points">
              <mxPoint x="1532" y="439" />
            </Array>
          </mxGeometry>
        </mxCell>
        <mxCell id="idUogFl2Q6J1yMuT-vOO-92" value="Display mentor list" style="verticalAlign=bottom;edgeStyle=elbowEdgeStyle;elbow=vertical;curved=0;rounded=0;dashed=1;dashPattern=2 3;endArrow=block;" edge="1" parent="1" source="idUogFl2Q6J1yMuT-vOO-68" target="idUogFl2Q6J1yMuT-vOO-66">
          <mxGeometry relative="1" as="geometry">
            <Array as="points">
              <mxPoint x="317" y="491" />
            </Array>
          </mxGeometry>
        </mxCell>
        <mxCell id="idUogFl2Q6J1yMuT-vOO-93" value="Select mentor and click book" style="verticalAlign=bottom;edgeStyle=elbowEdgeStyle;elbow=vertical;curved=0;rounded=0;endArrow=block;" edge="1" parent="1" source="idUogFl2Q6J1yMuT-vOO-66" target="idUogFl2Q6J1yMuT-vOO-68">
          <mxGeometry relative="1" as="geometry">
            <Array as="points">
              <mxPoint x="314" y="543" />
            </Array>
          </mxGeometry>
        </mxCell>
        <mxCell id="idUogFl2Q6J1yMuT-vOO-94" value="Navigate to booking page" style="verticalAlign=bottom;edgeStyle=elbowEdgeStyle;elbow=vertical;curved=0;rounded=0;endArrow=block;" edge="1" parent="1" source="idUogFl2Q6J1yMuT-vOO-68" target="idUogFl2Q6J1yMuT-vOO-75">
          <mxGeometry relative="1" as="geometry">
            <Array as="points">
              <mxPoint x="1329" y="595" />
            </Array>
          </mxGeometry>
        </mxCell>
        <mxCell id="idUogFl2Q6J1yMuT-vOO-95" value="Load booking page" style="verticalAlign=bottom;edgeStyle=elbowEdgeStyle;elbow=vertical;curved=0;rounded=0;endArrow=block;" edge="1" parent="1" source="idUogFl2Q6J1yMuT-vOO-75" target="idUogFl2Q6J1yMuT-vOO-69">
          <mxGeometry relative="1" as="geometry">
            <Array as="points">
              <mxPoint x="1436" y="647" />
            </Array>
          </mxGeometry>
        </mxCell>
        <mxCell id="idUogFl2Q6J1yMuT-vOO-96" value="Open calendar to select time" style="verticalAlign=bottom;edgeStyle=elbowEdgeStyle;elbow=vertical;curved=0;rounded=0;endArrow=block;" edge="1" parent="1" source="idUogFl2Q6J1yMuT-vOO-69" target="idUogFl2Q6J1yMuT-vOO-70">
          <mxGeometry relative="1" as="geometry">
            <Array as="points">
              <mxPoint x="869" y="699" />
            </Array>
          </mxGeometry>
        </mxCell>
        <mxCell id="idUogFl2Q6J1yMuT-vOO-97" value="Request available time slots" style="verticalAlign=bottom;edgeStyle=elbowEdgeStyle;elbow=vertical;curved=0;rounded=0;endArrow=block;" edge="1" parent="1" source="idUogFl2Q6J1yMuT-vOO-70" target="idUogFl2Q6J1yMuT-vOO-79">
          <mxGeometry relative="1" as="geometry">
            <Array as="points">
              <mxPoint x="1973" y="751" />
            </Array>
          </mxGeometry>
        </mxCell>
        <mxCell id="idUogFl2Q6J1yMuT-vOO-98" value="Query mentor schedule" style="verticalAlign=bottom;edgeStyle=elbowEdgeStyle;elbow=vertical;curved=0;rounded=0;endArrow=block;" edge="1" parent="1" source="idUogFl2Q6J1yMuT-vOO-79" target="idUogFl2Q6J1yMuT-vOO-82">
          <mxGeometry relative="1" as="geometry">
            <Array as="points">
              <mxPoint x="3283" y="803" />
            </Array>
          </mxGeometry>
        </mxCell>
        <mxCell id="idUogFl2Q6J1yMuT-vOO-99" value="Return available slots" style="verticalAlign=bottom;edgeStyle=elbowEdgeStyle;elbow=vertical;curved=0;rounded=0;dashed=1;dashPattern=2 3;endArrow=block;" edge="1" parent="1" source="idUogFl2Q6J1yMuT-vOO-82" target="idUogFl2Q6J1yMuT-vOO-79">
          <mxGeometry relative="1" as="geometry">
            <Array as="points">
              <mxPoint x="3286" y="855" />
            </Array>
          </mxGeometry>
        </mxCell>
        <mxCell id="idUogFl2Q6J1yMuT-vOO-100" value="Display available slots" style="verticalAlign=bottom;edgeStyle=elbowEdgeStyle;elbow=vertical;curved=0;rounded=0;dashed=1;dashPattern=2 3;endArrow=block;" edge="1" parent="1" source="idUogFl2Q6J1yMuT-vOO-79" target="idUogFl2Q6J1yMuT-vOO-70">
          <mxGeometry relative="1" as="geometry">
            <Array as="points">
              <mxPoint x="1976" y="907" />
            </Array>
          </mxGeometry>
        </mxCell>
        <mxCell id="idUogFl2Q6J1yMuT-vOO-101" value="Show time options" style="verticalAlign=bottom;edgeStyle=elbowEdgeStyle;elbow=vertical;curved=0;rounded=0;dashed=1;dashPattern=2 3;endArrow=block;" edge="1" parent="1" source="idUogFl2Q6J1yMuT-vOO-70" target="idUogFl2Q6J1yMuT-vOO-66">
          <mxGeometry relative="1" as="geometry">
            <Array as="points">
              <mxPoint x="558" y="959" />
            </Array>
          </mxGeometry>
        </mxCell>
        <mxCell id="idUogFl2Q6J1yMuT-vOO-102" value="Select time slot" style="verticalAlign=bottom;edgeStyle=elbowEdgeStyle;elbow=vertical;curved=0;rounded=0;endArrow=block;" edge="1" parent="1" source="idUogFl2Q6J1yMuT-vOO-66" target="idUogFl2Q6J1yMuT-vOO-70">
          <mxGeometry relative="1" as="geometry">
            <Array as="points">
              <mxPoint x="555" y="1011" />
            </Array>
          </mxGeometry>
        </mxCell>
        <mxCell id="idUogFl2Q6J1yMuT-vOO-103" value="Display session details page" style="verticalAlign=bottom;edgeStyle=elbowEdgeStyle;elbow=vertical;curved=0;rounded=0;endArrow=block;" edge="1" parent="1" source="idUogFl2Q6J1yMuT-vOO-70" target="idUogFl2Q6J1yMuT-vOO-71">
          <mxGeometry relative="1" as="geometry">
            <Array as="points">
              <mxPoint x="1139" y="1063" />
            </Array>
          </mxGeometry>
        </mxCell>
        <mxCell id="idUogFl2Q6J1yMuT-vOO-104" value="Show session information" style="verticalAlign=bottom;edgeStyle=elbowEdgeStyle;elbow=vertical;curved=0;rounded=0;dashed=1;dashPattern=2 3;endArrow=block;" edge="1" parent="1" source="idUogFl2Q6J1yMuT-vOO-71" target="idUogFl2Q6J1yMuT-vOO-66">
          <mxGeometry relative="1" as="geometry">
            <Array as="points">
              <mxPoint x="691" y="1115" />
            </Array>
          </mxGeometry>
        </mxCell>
        <mxCell id="idUogFl2Q6J1yMuT-vOO-105" value="Confirm session details" style="verticalAlign=bottom;edgeStyle=elbowEdgeStyle;elbow=vertical;curved=0;rounded=0;endArrow=block;" edge="1" parent="1" source="idUogFl2Q6J1yMuT-vOO-66" target="idUogFl2Q6J1yMuT-vOO-71">
          <mxGeometry relative="1" as="geometry">
            <Array as="points">
              <mxPoint x="688" y="1167" />
            </Array>
          </mxGeometry>
        </mxCell>
        <mxCell id="idUogFl2Q6J1yMuT-vOO-106" value="Navigate to room selection" style="verticalAlign=bottom;edgeStyle=elbowEdgeStyle;elbow=vertical;curved=0;rounded=0;endArrow=block;" edge="1" parent="1" source="idUogFl2Q6J1yMuT-vOO-71" target="idUogFl2Q6J1yMuT-vOO-72">
          <mxGeometry relative="1" as="geometry">
            <Array as="points">
              <mxPoint x="1403" y="1219" />
            </Array>
          </mxGeometry>
        </mxCell>
        <mxCell id="idUogFl2Q6J1yMuT-vOO-107" value="Request available rooms" style="verticalAlign=bottom;edgeStyle=elbowEdgeStyle;elbow=vertical;curved=0;rounded=0;endArrow=block;" edge="1" parent="1" source="idUogFl2Q6J1yMuT-vOO-72" target="idUogFl2Q6J1yMuT-vOO-78">
          <mxGeometry relative="1" as="geometry">
            <Array as="points">
              <mxPoint x="2134" y="1271" />
            </Array>
          </mxGeometry>
        </mxCell>
        <mxCell id="idUogFl2Q6J1yMuT-vOO-108" value="Query available rooms" style="verticalAlign=bottom;edgeStyle=elbowEdgeStyle;elbow=vertical;curved=0;rounded=0;endArrow=block;" edge="1" parent="1" source="idUogFl2Q6J1yMuT-vOO-78" target="idUogFl2Q6J1yMuT-vOO-82">
          <mxGeometry relative="1" as="geometry">
            <Array as="points">
              <mxPoint x="3180" y="1323" />
            </Array>
          </mxGeometry>
        </mxCell>
        <mxCell id="idUogFl2Q6J1yMuT-vOO-109" value="Return available rooms" style="verticalAlign=bottom;edgeStyle=elbowEdgeStyle;elbow=vertical;curved=0;rounded=0;dashed=1;dashPattern=2 3;endArrow=block;" edge="1" parent="1" source="idUogFl2Q6J1yMuT-vOO-82" target="idUogFl2Q6J1yMuT-vOO-78">
          <mxGeometry relative="1" as="geometry">
            <Array as="points">
              <mxPoint x="3183" y="1375" />
            </Array>
          </mxGeometry>
        </mxCell>
        <mxCell id="idUogFl2Q6J1yMuT-vOO-110" value="Display available rooms" style="verticalAlign=bottom;edgeStyle=elbowEdgeStyle;elbow=vertical;curved=0;rounded=0;dashed=1;dashPattern=2 3;endArrow=block;" edge="1" parent="1" source="idUogFl2Q6J1yMuT-vOO-78" target="idUogFl2Q6J1yMuT-vOO-72">
          <mxGeometry relative="1" as="geometry">
            <Array as="points">
              <mxPoint x="2137" y="1427" />
            </Array>
          </mxGeometry>
        </mxCell>
        <mxCell id="idUogFl2Q6J1yMuT-vOO-111" value="Show room options" style="verticalAlign=bottom;edgeStyle=elbowEdgeStyle;elbow=vertical;curved=0;rounded=0;dashed=1;dashPattern=2 3;endArrow=block;" edge="1" parent="1" source="idUogFl2Q6J1yMuT-vOO-72" target="idUogFl2Q6J1yMuT-vOO-66">
          <mxGeometry relative="1" as="geometry">
            <Array as="points">
              <mxPoint x="822" y="1479" />
            </Array>
          </mxGeometry>
        </mxCell>
        <mxCell id="idUogFl2Q6J1yMuT-vOO-112" value="Select room and confirm booking" style="verticalAlign=bottom;edgeStyle=elbowEdgeStyle;elbow=vertical;curved=0;rounded=0;endArrow=block;" edge="1" parent="1" source="idUogFl2Q6J1yMuT-vOO-66" target="idUogFl2Q6J1yMuT-vOO-72">
          <mxGeometry relative="1" as="geometry">
            <Array as="points">
              <mxPoint x="819" y="1531" />
            </Array>
          </mxGeometry>
        </mxCell>
        <mxCell id="idUogFl2Q6J1yMuT-vOO-113" value="Submit booking request" style="verticalAlign=bottom;edgeStyle=elbowEdgeStyle;elbow=vertical;curved=0;rounded=0;endArrow=block;" edge="1" parent="1" source="idUogFl2Q6J1yMuT-vOO-72" target="idUogFl2Q6J1yMuT-vOO-78">
          <mxGeometry relative="1" as="geometry">
            <Array as="points">
              <mxPoint x="2134" y="1583" />
            </Array>
          </mxGeometry>
        </mxCell>
        <mxCell id="idUogFl2Q6J1yMuT-vOO-114" value="Create booking record" style="verticalAlign=bottom;edgeStyle=elbowEdgeStyle;elbow=vertical;curved=0;rounded=0;endArrow=block;" edge="1" parent="1" source="idUogFl2Q6J1yMuT-vOO-78" target="idUogFl2Q6J1yMuT-vOO-82">
          <mxGeometry relative="1" as="geometry">
            <Array as="points">
              <mxPoint x="3180" y="1635" />
            </Array>
          </mxGeometry>
        </mxCell>
        <mxCell id="idUogFl2Q6J1yMuT-vOO-115" value="Confirm booking created" style="verticalAlign=bottom;edgeStyle=elbowEdgeStyle;elbow=vertical;curved=0;rounded=0;dashed=1;dashPattern=2 3;endArrow=block;" edge="1" parent="1" source="idUogFl2Q6J1yMuT-vOO-82" target="idUogFl2Q6J1yMuT-vOO-78">
          <mxGeometry relative="1" as="geometry">
            <Array as="points">
              <mxPoint x="3183" y="1687" />
            </Array>
          </mxGeometry>
        </mxCell>
        <mxCell id="idUogFl2Q6J1yMuT-vOO-116" value="Trigger notification" style="verticalAlign=bottom;edgeStyle=elbowEdgeStyle;elbow=vertical;curved=0;rounded=0;dashed=1;dashPattern=2 3;endArrow=block;" edge="1" parent="1" source="idUogFl2Q6J1yMuT-vOO-78" target="idUogFl2Q6J1yMuT-vOO-73">
          <mxGeometry relative="1" as="geometry">
            <Array as="points">
              <mxPoint x="2237" y="1739" />
            </Array>
          </mxGeometry>
        </mxCell>
        <mxCell id="idUogFl2Q6J1yMuT-vOO-117" value="Send notification" style="verticalAlign=bottom;edgeStyle=elbowEdgeStyle;elbow=vertical;curved=0;rounded=0;endArrow=block;" edge="1" parent="1" source="idUogFl2Q6J1yMuT-vOO-73" target="idUogFl2Q6J1yMuT-vOO-80">
          <mxGeometry relative="1" as="geometry">
            <Array as="points">
              <mxPoint x="2446" y="1791" />
            </Array>
          </mxGeometry>
        </mxCell>
        <mxCell id="idUogFl2Q6J1yMuT-vOO-118" value="Store notification" style="verticalAlign=bottom;edgeStyle=elbowEdgeStyle;elbow=vertical;curved=0;rounded=0;endArrow=block;" edge="1" parent="1" source="idUogFl2Q6J1yMuT-vOO-80" target="idUogFl2Q6J1yMuT-vOO-82">
          <mxGeometry relative="1" as="geometry">
            <Array as="points">
              <mxPoint x="3392" y="1843" />
            </Array>
          </mxGeometry>
        </mxCell>
        <mxCell id="idUogFl2Q6J1yMuT-vOO-119" value="Confirm notification stored" style="verticalAlign=bottom;edgeStyle=elbowEdgeStyle;elbow=vertical;curved=0;rounded=0;dashed=1;dashPattern=2 3;endArrow=block;" edge="1" parent="1" source="idUogFl2Q6J1yMuT-vOO-82" target="idUogFl2Q6J1yMuT-vOO-80">
          <mxGeometry relative="1" as="geometry">
            <Array as="points">
              <mxPoint x="3395" y="1895" />
            </Array>
          </mxGeometry>
        </mxCell>
        <mxCell id="idUogFl2Q6J1yMuT-vOO-120" value="Show notification success" style="verticalAlign=bottom;edgeStyle=elbowEdgeStyle;elbow=vertical;curved=0;rounded=0;dashed=1;dashPattern=2 3;endArrow=block;" edge="1" parent="1" source="idUogFl2Q6J1yMuT-vOO-80" target="idUogFl2Q6J1yMuT-vOO-73">
          <mxGeometry relative="1" as="geometry">
            <Array as="points">
              <mxPoint x="2449" y="1947" />
            </Array>
          </mxGeometry>
        </mxCell>
        <mxCell id="idUogFl2Q6J1yMuT-vOO-121" value="Display booking confirmation" style="verticalAlign=bottom;edgeStyle=elbowEdgeStyle;elbow=vertical;curved=0;rounded=0;dashed=1;dashPattern=2 3;endArrow=block;" edge="1" parent="1" source="idUogFl2Q6J1yMuT-vOO-73" target="idUogFl2Q6J1yMuT-vOO-66">
          <mxGeometry relative="1" as="geometry">
            <Array as="points">
              <mxPoint x="922" y="1999" />
            </Array>
          </mxGeometry>
        </mxCell>
        <mxCell id="idUogFl2Q6J1yMuT-vOO-122" value="Click &quot;Need Help&quot;" style="verticalAlign=bottom;edgeStyle=elbowEdgeStyle;elbow=vertical;curved=0;rounded=0;endArrow=block;" edge="1" parent="1" source="idUogFl2Q6J1yMuT-vOO-66" target="idUogFl2Q6J1yMuT-vOO-69">
          <mxGeometry relative="1" as="geometry">
            <Array as="points">
              <mxPoint x="418" y="2097" />
            </Array>
          </mxGeometry>
        </mxCell>
        <mxCell id="idUogFl2Q6J1yMuT-vOO-123" value="Navigate to help request interface" style="verticalAlign=bottom;edgeStyle=elbowEdgeStyle;elbow=vertical;curved=0;rounded=0;endArrow=block;" edge="1" parent="1" source="idUogFl2Q6J1yMuT-vOO-69" target="idUogFl2Q6J1yMuT-vOO-74">
          <mxGeometry relative="1" as="geometry">
            <Array as="points">
              <mxPoint x="1333" y="2149" />
            </Array>
          </mxGeometry>
        </mxCell>
        <mxCell id="idUogFl2Q6J1yMuT-vOO-124" value="Display help options" style="verticalAlign=bottom;edgeStyle=elbowEdgeStyle;elbow=vertical;curved=0;rounded=0;dashed=1;dashPattern=2 3;endArrow=block;" edge="1" parent="1" source="idUogFl2Q6J1yMuT-vOO-74" target="idUogFl2Q6J1yMuT-vOO-66">
          <mxGeometry relative="1" as="geometry">
            <Array as="points">
              <mxPoint x="1022" y="2201" />
            </Array>
          </mxGeometry>
        </mxCell>
        <mxCell id="idUogFl2Q6J1yMuT-vOO-125" value="Submit help request" style="verticalAlign=bottom;edgeStyle=elbowEdgeStyle;elbow=vertical;curved=0;rounded=0;endArrow=block;" edge="1" parent="1" source="idUogFl2Q6J1yMuT-vOO-66" target="idUogFl2Q6J1yMuT-vOO-74">
          <mxGeometry relative="1" as="geometry">
            <Array as="points">
              <mxPoint x="1019" y="2253" />
            </Array>
          </mxGeometry>
        </mxCell>
        <mxCell id="idUogFl2Q6J1yMuT-vOO-126" value="Send help request" style="verticalAlign=bottom;edgeStyle=elbowEdgeStyle;elbow=vertical;curved=0;rounded=0;endArrow=block;" edge="1" parent="1" source="idUogFl2Q6J1yMuT-vOO-74" target="idUogFl2Q6J1yMuT-vOO-81">
          <mxGeometry relative="1" as="geometry">
            <Array as="points">
              <mxPoint x="2653" y="2305" />
            </Array>
          </mxGeometry>
        </mxCell>
        <mxCell id="idUogFl2Q6J1yMuT-vOO-127" value="Record help request" style="verticalAlign=bottom;edgeStyle=elbowEdgeStyle;elbow=vertical;curved=0;rounded=0;endArrow=block;" edge="1" parent="1" source="idUogFl2Q6J1yMuT-vOO-81" target="idUogFl2Q6J1yMuT-vOO-82">
          <mxGeometry relative="1" as="geometry">
            <Array as="points">
              <mxPoint x="3499" y="2357" />
            </Array>
          </mxGeometry>
        </mxCell>
        <mxCell id="idUogFl2Q6J1yMuT-vOO-128" value="Confirm request recorded" style="verticalAlign=bottom;edgeStyle=elbowEdgeStyle;elbow=vertical;curved=0;rounded=0;dashed=1;dashPattern=2 3;endArrow=block;" edge="1" parent="1" source="idUogFl2Q6J1yMuT-vOO-82" target="idUogFl2Q6J1yMuT-vOO-81">
          <mxGeometry relative="1" as="geometry">
            <Array as="points">
              <mxPoint x="3502" y="2409" />
            </Array>
          </mxGeometry>
        </mxCell>
        <mxCell id="idUogFl2Q6J1yMuT-vOO-129" value="Return request confirmation" style="verticalAlign=bottom;edgeStyle=elbowEdgeStyle;elbow=vertical;curved=0;rounded=0;dashed=1;dashPattern=2 3;endArrow=block;" edge="1" parent="1" source="idUogFl2Q6J1yMuT-vOO-81" target="idUogFl2Q6J1yMuT-vOO-74">
          <mxGeometry relative="1" as="geometry">
            <Array as="points">
              <mxPoint x="2656" y="2461" />
            </Array>
          </mxGeometry>
        </mxCell>
        <mxCell id="idUogFl2Q6J1yMuT-vOO-130" value="Show help request submitted" style="verticalAlign=bottom;edgeStyle=elbowEdgeStyle;elbow=vertical;curved=0;rounded=0;dashed=1;dashPattern=2 3;endArrow=block;" edge="1" parent="1" source="idUogFl2Q6J1yMuT-vOO-74" target="idUogFl2Q6J1yMuT-vOO-66">
          <mxGeometry relative="1" as="geometry">
            <Array as="points">
              <mxPoint x="1022" y="2513" />
            </Array>
          </mxGeometry>
        </mxCell>
      </root>
    </mxGraphModel>
  </diagram>
</mxfile>
